<svg width="143" height="106" viewBox="0 0 143 106" fill="none" xmlns="http://www.w3.org/2000/svg">
<g clip-path="url(#clip0_553_4462)">
<path d="M116.178 2.29702C113.84 2.7124 112.251 3.62946 111.32 5.09489C110.107 7.00304 110.022 9.79532 111.054 13.8715C110.131 15.7447 109.209 17.6087 108.29 19.4635C106.168 23.7504 103.974 28.1828 101.859 32.5424C99.7444 36.9019 97.6262 41.3567 95.5776 45.6643C94.6981 47.5125 93.8176 49.3624 92.9356 51.2143C92.5865 51.2997 92.2178 51.3713 91.8311 51.4467C90.6688 51.5996 89.5449 51.9629 88.5132 52.5192C87.1669 53.3566 86.1843 53.1745 84.6182 52.4845C76.0002 48.6928 68.2228 46.0364 60.8418 44.3648C60.2714 44.2674 59.7307 44.0388 59.2616 43.6966C58.793 43.3543 58.4084 42.9079 58.1387 42.3921C57.0968 40.5559 55.3823 39.2021 53.3638 38.6223C51.3458 38.0424 49.1852 38.283 47.3477 39.2921C45.474 40.2986 44.0496 41.9814 43.3585 44.0044C42.6674 46.0274 42.7609 48.2416 43.6201 50.2044C43.8452 50.7236 44.0872 51.2383 44.3184 51.7281L44.5067 52.1311L25.2777 84.2707C25.1423 84.2934 25.0067 84.3141 24.872 84.3356C24.4266 84.4045 23.966 84.4776 23.5137 84.5862C19.1842 85.6127 17.0509 88.2146 16.7954 92.778C16.6037 96.2005 18.4884 98.7044 19.9231 100.29C20.9153 101.44 22.1898 102.308 23.6181 102.805C25.0467 103.303 26.5788 103.415 28.0601 103.127C28.2087 103.096 28.3558 103.06 28.5018 103.022C29.8958 102.625 31.1686 101.885 32.2053 100.869C33.2419 99.8518 34.0098 98.5904 34.4398 97.1977C35.7697 93.2061 35.266 89.9342 32.896 87.2086L51.6165 56.2529L58.0523 52.1853L82.7419 61.0081C83.7362 64.062 85.124 66.18 87.2198 67.8508C88.4582 68.8901 90.0083 69.4775 91.6171 69.5171C93.2257 69.5562 94.7974 69.0449 96.0765 68.0667C99.8061 65.3611 101.17 61.2149 99.834 56.6687L116.634 18.2466C120.409 17.991 123.104 16.9162 124.647 15.0465C125.84 13.6025 126.301 11.7358 126.017 9.4984C125.895 8.36462 125.543 7.26715 124.983 6.27413C124.423 5.28115 123.667 4.41381 122.761 3.72573C121.818 3.04711 120.747 2.57016 119.614 2.32447C118.482 2.07864 117.312 2.06937 116.178 2.29702Z" fill="#D97139"/>
</g>
<defs>
<clipPath id="clip0_553_4462">
<rect width="127.959" height="74.9585" fill="white" transform="translate(0 33.1184) rotate(-15)"/>
</clipPath>
</defs>
</svg>
