<svg width="56" height="56" viewBox="0 0 56 56" fill="none" xmlns="http://www.w3.org/2000/svg">
<path d="M39.9697 20.7529C42.1586 21.45 43.9753 21.7158 45.6907 21.5915C47.8485 21.4344 48.9928 20.2354 48.9998 18.1246C49.003 17.1666 48.9562 16.1945 48.911 15.2545C48.898 14.9894 48.8858 14.7243 48.8739 14.4593C48.8749 14.1581 48.7724 13.8651 48.5828 13.6267C48.3931 13.3883 48.1268 13.2182 47.8263 13.1431C47.4179 13.0241 47.003 12.9276 46.5835 12.854C42.1309 12.0727 38.7041 10.4026 36.1068 7.74815C35.6656 7.30598 35.0706 7.03924 34.4378 7H34.419C33.0797 7.017 31.7243 7.1552 30.4132 7.28902L29.7474 7.35585C28.9838 7.43152 28.5242 7.91699 28.4869 8.68726C28.4694 9.04213 28.462 9.31374 28.4622 9.5676C28.4631 11.3567 28.4655 13.1459 28.4696 14.935C28.4775 19.1821 28.4857 23.5738 28.4587 27.8919C28.4461 29.9195 28.3348 31.9635 28.1276 33.9671C28.0817 34.4782 27.9297 34.9751 27.6813 35.428C27.4328 35.8808 27.0926 36.2803 26.6814 36.6027C26.2337 36.9393 25.7209 37.185 25.1733 37.3252C24.6258 37.4653 24.0547 37.4969 23.4942 37.418C21.245 37.1422 20.0173 35.8455 19.6301 33.3371C19.4152 31.9451 19.7002 30.6891 20.4564 29.704C21.1997 28.7348 22.3301 28.12 23.725 27.9261C25.0253 27.7454 25.4223 27.254 25.2979 25.9783C25.1917 24.8914 25.0218 23.7943 24.8574 22.7336C24.7504 22.0428 24.6396 21.3281 24.5478 20.6252C24.4545 19.9093 24.0069 19.4842 23.2172 19.362C22.7261 19.288 22.2266 19.2831 21.7341 19.3476C15.7471 20.131 11.3441 23.1433 8.64724 28.3009C6.7024 32.0188 6.46885 36.2866 8.0044 40.0099C9.49526 43.6258 12.4836 46.3608 16.4187 47.7111C18.8377 48.5567 21.3884 48.9927 23.9596 49C26.714 49 29.5038 48.4909 32.3705 47.4729C35.7576 46.2695 37.7456 43.8126 38.2782 40.1704C39.0211 35.0915 39.1387 30.8222 38.6484 26.7348C38.4708 25.2538 38.4077 23.7621 38.3407 22.1827C38.3134 21.531 38.2849 20.8595 38.2475 20.1722C38.4385 20.2371 38.6143 20.2973 38.7788 20.3536C39.2366 20.5107 39.5981 20.6347 39.9697 20.7529ZM35.274 22.0987C35.307 25.0718 35.3411 28.1465 35.301 31.1686L35.2987 31.34C35.2637 34.0728 35.226 36.8984 34.6855 39.6436C34.1909 42.1571 32.8539 43.7392 30.5982 44.48C25.8256 46.0473 21.4383 46.0578 17.1847 44.5117C11.2502 42.3542 9.4611 37.0432 10.3207 32.7367C11.4492 27.0839 14.736 23.4833 20.0899 22.0346C20.6506 21.8831 21.3164 21.7057 21.9932 21.5394C22.1551 21.5042 22.3188 21.4779 22.4838 21.4606C22.5509 21.4519 22.624 21.4424 22.7049 21.4315L22.9432 25.6121C22.8805 25.6427 22.8221 25.6728 22.7667 25.7012C22.6439 25.7731 22.5118 25.8289 22.3739 25.8673C18.5661 26.6711 16.3852 30.1929 17.0705 34.4314C17.2643 35.6586 17.7926 36.8133 18.6006 37.7759C19.4085 38.7385 20.4669 39.4743 21.6661 39.9067C22.9198 40.3724 24.2778 40.5096 25.6035 40.3042C26.9291 40.0988 28.1757 39.5581 29.2177 38.7366C30.6972 37.5613 31.4178 36.0939 31.3018 34.4932C31.1683 32.6467 31.2563 30.7746 31.3416 28.964C31.3956 27.8135 31.4516 26.6241 31.4504 25.4507C31.4476 22.433 31.4354 19.365 31.4234 16.398C31.4177 14.9971 31.4124 13.5964 31.4075 12.1957C31.4057 11.6856 31.4063 11.1755 31.4075 10.6519V10.0183C32.095 9.76617 32.7699 9.80986 33.4238 9.85271C33.6691 9.86869 33.9212 9.88501 34.169 9.88501H34.173L34.3698 10.0745C36.9655 12.574 37.5169 13.1044 45.8532 15.7708L45.7337 18.0251C45.6812 18.0504 45.6335 18.0761 45.5883 18.1002C45.5175 18.1442 45.4397 18.1765 45.3583 18.1958C42.8852 18.0162 40.0338 17.7068 37.4913 16.3015C37.1314 16.1217 36.7518 15.9822 36.3596 15.8858C36.1438 15.8234 35.9204 15.7588 35.6763 15.6774C35.6511 15.6689 35.6243 15.666 35.5977 15.6688C35.5712 15.6716 35.5456 15.6802 35.523 15.6938C35.5002 15.7074 35.481 15.7258 35.4664 15.7475C35.4519 15.7693 35.4426 15.7939 35.4393 15.8196C35.4074 16.0532 35.3732 16.2576 35.342 16.4431C35.2788 16.7571 35.2427 17.0755 35.2339 17.3953C35.2388 18.9632 35.2565 20.5572 35.2737 22.0987H35.274Z" fill="white"/>
</svg>
