<svg width="56" height="56" viewBox="0 0 56 56" fill="none" xmlns="http://www.w3.org/2000/svg">
<path d="M51.1344 28.1769C51.1011 27.5306 51.0687 26.8842 51.0371 26.238C50.9808 25.0528 50.9259 23.8675 50.8722 22.6822C50.7684 20.4141 50.661 18.0688 50.542 15.7627C50.4904 14.2008 49.8452 12.7156 48.7352 11.6032C47.3843 10.2431 45.6221 9.56916 43.3472 9.54236C38.3501 9.48366 32.4344 9.41586 26.445 9.3558C25.3866 9.34512 24.3106 9.34852 23.2706 9.35175C22.6856 9.35344 22.1004 9.35439 21.5146 9.35473C20.6752 9.35394 19.8358 9.35048 18.9964 9.34437C17.1089 9.33385 15.1585 9.32248 13.2397 9.35862C11.5368 9.39069 10.1257 9.7309 8.92593 10.399C6.45507 11.7749 5.13934 13.7827 5.01699 16.3667C4.95042 17.7748 4.92744 19.2081 4.90548 20.5936L4.89811 21.0517C4.87111 22.6951 4.84669 24.3385 4.82484 25.9819C4.78314 28.9392 4.74008 31.9974 4.67436 35.0043C4.63421 36.8445 4.72787 39.0047 5.72823 41.0733C6.58496 42.845 7.7075 43.9954 9.26123 44.6934C10.6391 45.2996 12.0889 45.7315 13.5761 45.9789C16.1877 46.4408 18.8672 46.4933 21.4584 46.5438L21.6704 46.5481C22.105 46.5565 22.5491 46.5906 22.9784 46.6234C23.1805 46.6388 23.3828 46.6543 23.5849 46.6673H41.2139C41.2204 46.6673 41.2269 46.667 41.2336 46.6661C41.5522 46.6305 41.8714 46.5996 42.1905 46.5686C42.8808 46.5017 43.5948 46.4329 44.2913 46.3141C48.0108 45.6811 50.4964 43.2656 50.9403 39.8527C51.3008 36.9743 51.4139 34.0711 51.278 31.1737C51.2378 30.1744 51.1853 29.1591 51.1344 28.1769ZM48.3459 31.095C48.3176 33.9128 48.1525 36.7509 47.9712 39.6527C47.8088 42.2529 45.5295 43.3733 43.6267 43.5425C42.8649 43.6103 42.1008 43.6458 41.3556 43.6483L38.0477 43.6602C32.6664 43.6797 27.1018 43.7008 21.6295 43.6884C18.5285 43.6814 15.5027 43.6139 12.5795 42.8717C11.6856 42.652 10.82 42.3317 9.99991 41.9169C9.07883 41.4406 8.41631 40.5983 7.97516 39.3418C7.37394 37.5778 7.07352 35.727 7.08618 33.8654C7.06902 31.4903 7.11245 29.0739 7.15346 26.7371L7.1809 25.1383C7.22362 22.5446 7.26791 19.8621 7.35542 17.2272C7.4558 14.2048 9.18213 12.2853 12.2163 11.8222C13.8 11.5843 15.3997 11.4664 17.0015 11.4694C17.0597 11.4694 17.1181 11.4694 17.1762 11.4694C20.0172 11.4838 22.9061 11.5542 25.6999 11.622C26.8487 11.65 27.9973 11.6768 29.1459 11.7026C29.1926 11.7033 29.2377 11.6859 29.2717 11.6541C29.2789 11.6473 29.2854 11.64 29.2913 11.6322C30.4996 11.6621 31.7081 11.6917 32.9164 11.7211C36.326 11.8042 39.8515 11.8908 43.3186 11.9885C44.3458 12.0175 45.4227 12.1479 46.3387 12.9001C47.244 13.6444 47.6892 14.4456 47.7395 15.4216L47.7738 16.0881C47.8963 18.4521 48.0226 20.8968 48.1191 23.3016C48.1403 23.8368 48.1633 24.3722 48.1877 24.9076C48.2747 26.9376 48.3665 29.0352 48.3459 31.095Z" fill="white"/>
<path d="M34.4991 25.4411C33.7829 24.8622 33.05 24.2971 32.4277 23.8207L31.6883 23.2546C29.7451 21.7667 27.7358 20.2278 25.7462 18.7308C25.3983 18.4873 25.016 18.2958 24.6117 18.1622C23.8965 17.9039 23.1875 18.1284 22.8459 18.7221C22.3694 19.5507 22.1204 20.258 22.0847 20.8838C21.9921 22.5072 21.9735 24.16 21.9557 25.7581C21.9492 26.3323 21.9428 26.9069 21.9329 27.4809C21.9023 27.4939 21.8761 27.5155 21.8574 27.5428C21.8385 27.57 21.828 27.602 21.8268 27.6349L21.7721 29.2276C21.7199 30.7471 21.6666 32.2665 21.6119 33.7861C21.5879 34.4372 21.8043 34.8752 22.2736 35.1253C22.4662 35.2305 22.6824 35.2861 22.9023 35.2873C23.2174 35.2782 23.5231 35.1796 23.7829 35.0033C24.7519 34.3939 25.7212 33.785 26.6912 33.1767C29.2135 31.5933 31.8216 29.9563 34.3783 28.3307C34.9866 27.9437 35.3236 27.4714 35.3526 26.9645C35.3821 26.4429 35.0871 25.9165 34.4991 25.4411ZM31.655 26.9081L24.1654 31.74L24.3574 21.4651C25.8773 22.4805 27.3006 23.581 28.8015 24.7425C29.7241 25.4552 30.6753 26.1908 31.655 26.9081Z" fill="white"/>
</svg>
